<?xml version="1.0" encoding="UTF-8"?>
<svg version="1.1" xmlns="http://www.w3.org/2000/svg" width="1870" height="273">
<path d="M0 0 C1.65 0 3.3 0 5 0 C4.99476318 1.06436279 4.98952637 2.12872559 4.98413086 3.2253418 C4.9659895 7.18561966 4.95453463 11.14589386 4.94506836 15.10620117 C4.94004901 16.81812152 4.93323215 18.53003761 4.92456055 20.24194336 C4.91238979 22.70687922 4.90674762 25.17175825 4.90234375 27.63671875 C4.89718246 28.39836838 4.89202118 29.16001801 4.88670349 29.94474792 C4.88630228 33.77122573 5.1492046 37.27221775 6 41 C5.87890625 43.45703125 5.87890625 43.45703125 5.5625 45.8125 C5.46066406 46.60269531 5.35882813 47.39289062 5.25390625 48.20703125 C5.17011719 48.79871094 5.08632813 49.39039063 5 50 C5.66 50 6.32 50 7 50 C7.19412181 51.47831221 7.38012131 52.95769316 7.5625 54.4375 C7.71912109 55.67306641 7.71912109 55.67306641 7.87890625 56.93359375 C7.93884766 57.95646484 7.93884766 57.95646484 8 59 C7.67 59.33 7.34 59.66 7 60 C6.91348389 61.41570123 6.89295096 62.835595 6.90234375 64.25390625 C6.90556641 65.10791016 6.90878906 65.96191406 6.91210938 66.84179688 C6.92048828 67.73962891 6.92886719 68.63746094 6.9375 69.5625 C6.94201172 70.46419922 6.94652344 71.36589844 6.95117188 72.29492188 C6.96299775 74.53001314 6.9794778 76.76497437 7 79 C7.60457031 79.27328125 8.20914063 79.5465625 8.83203125 79.828125 C12.99338502 82.07750542 15.51365505 85.47611914 16.9375 89.9375 C17.03820423 94.87200742 16.15509484 98.59222817 13 102.4375 C11 104 11 104 9 104 C8.96844156 112.85870177 8.97471532 121.71635356 9.02846622 130.57495117 C9.05225803 134.68905672 9.06331929 138.80235444 9.04467773 142.91650391 C9.0271444 146.89168454 9.04384744 150.8654185 9.08367729 154.84042358 C9.09292723 156.35213735 9.0901167 157.86397748 9.07469368 159.37564087 C8.84564184 169.34628514 8.84564184 169.34628514 13.49389648 177.8671875 C14.65050106 178.9248405 15.81671815 179.97228016 17 181 C18.73578921 184.47157842 18.47596426 188.20464865 18 192 C16.90946695 194.61918417 15.60942098 196.63616293 14 199 C14.44730469 199.67804688 14.89460938 200.35609375 15.35546875 201.0546875 C19.34971285 207.20360912 22.79576023 213.41350713 26 220 C28.00545201 224.16110134 28.00545201 224.16110134 32 226 C31.979375 224.741875 31.95875 223.48375 31.9375 222.1875 C31.89113917 219.35948913 32.08307039 217.75078884 33 215 C35.12493141 214.97306425 37.24995912 214.95363372 39.375 214.9375 C40.55835937 214.92589844 41.74171875 214.91429687 42.9609375 214.90234375 C46 215 46 215 48 216 C48 216.66 48 217.32 48 218 C55.26 217.67 62.52 217.34 70 217 C70 213.37 70 209.74 70 206 C70.33 205.34 70.66 204.68 71 204 C70.23816406 203.82984375 69.47632812 203.6596875 68.69140625 203.484375 C59.0161209 201.21352151 50.92576883 197.541827 42.1875 192.9375 C41.54063232 192.5969458 40.89376465 192.2563916 40.22729492 191.90551758 C33.02534893 188.04575547 33.02534893 188.04575547 31 186 C31 184.35 31 182.7 31 181 C73.24 181 115.48 181 159 181 C159 182.65 159 184.3 159 186 C156.54296875 188.02734375 156.54296875 188.02734375 153.1875 189.9375 C152.59727051 190.27813477 152.00704102 190.61876953 151.39892578 190.96972656 C150.18705006 191.66473941 148.97018629 192.35112569 147.74853516 193.02880859 C146.17869404 193.90074771 144.62526519 194.80208159 143.07421875 195.70703125 C135.97094448 199.76751364 128.32311927 204 120 204 C120 205.98 120 207.96 120 210 C131.22 210 142.44 210 154 210 C154 211.65 154 213.3 154 215 C155.65 215 157.3 215 159 215 C158.938125 213.88625 158.87625 212.7725 158.8125 211.625 C158.874375 210.42875 158.93625 209.2325 159 208 C159.99 207.34 160.98 206.68 162 206 C162.43709055 203.90500243 162.43709055 203.90500243 162.34057617 201.45849609 C162.34023628 200.04725967 162.34023628 200.04725967 162.33988953 198.60751343 C162.32440567 197.58976837 162.30892181 196.57202332 162.29296875 195.5234375 C162.28872391 194.48305328 162.28447906 193.44266907 162.28010559 192.37075806 C162.26327482 189.03857853 162.22561422 185.70699759 162.1875 182.375 C162.17245887 180.11980038 162.15876947 177.86459131 162.14648438 175.609375 C162.11335699 170.07271145 162.0631142 164.53639848 162 159 C162.99 158.67 163.98 158.34 165 158 C165 152.39 165 146.78 165 141 C165.66 141 166.32 141 167 141 C167 137.04 167 133.08 167 129 C167.99 129 168.98 129 170 129 C170.33 134.28 170.66 139.56 171 145 C174.96 145 178.92 145 183 145 C183 143.68 183 142.36 183 141 C183.66 141 184.32 141 185 141 C185 137.37 185 133.74 185 130 C186.32 130 187.64 130 189 130 C190.12998844 139.34258296 190.09908936 148.60853097 190 158 C190.66 158 191.32 158 192 158 C192 147.44 192 136.88 192 126 C195.67883766 124.77372078 197.50323965 125.33136212 201.27734375 126.14453125 C203.13069336 126.54188477 203.13069336 126.54188477 205.02148438 126.94726562 C205.66432373 127.08946533 206.30716309 127.23166504 206.96948242 127.37817383 C208.92473178 127.80968215 210.88327317 128.22618364 212.84179688 128.64257812 C223.31574807 130.91857482 223.31574807 130.91857482 227 133 C227.09471858 142.0719352 227.14516104 150.98185679 226 160 C226.84304688 159.98839844 227.68609375 159.97679687 228.5546875 159.96484375 C230.19824219 159.95130859 230.19824219 159.95130859 231.875 159.9375 C233.51082031 159.92009766 233.51082031 159.92009766 235.1796875 159.90234375 C238 160 238 160 240 161 C239.99777939 160.43845718 239.99555878 159.87691437 239.99327087 159.2983551 C239.97121694 153.47519565 239.95609295 147.65204799 239.94506836 141.82885742 C239.94002692 139.65307127 239.93319393 137.47728853 239.92456055 135.30151367 C239.91248662 132.18146933 239.90676995 129.06146962 239.90234375 125.94140625 C239.89718246 124.96224747 239.89202118 123.98308868 239.88670349 122.97425842 C239.88659019 121.62297096 239.88659019 121.62297096 239.88647461 120.24438477 C239.884254 119.44718521 239.88203339 118.64998566 239.87974548 117.82862854 C240 116 240 116 241 115 C245.59835331 114.74508337 250.20792469 114.81476715 254.8125 114.8125 C256.75866211 114.79413086 256.75866211 114.79413086 258.74414062 114.77539062 C260.61295898 114.77249023 260.61295898 114.77249023 262.51953125 114.76953125 C264.23813354 114.76336792 264.23813354 114.76336792 265.99145508 114.75708008 C269 115 269 115 273 117 C273.33 148.68 273.66 180.36 274 213 C275.32 212.67 276.64 212.34 278 212 C277.84587646 211.34797607 277.69175293 210.69595215 277.53295898 210.02416992 C276.86432741 206.23015283 276.65616734 202.45426025 276.47265625 198.61328125 C276.43133072 197.78540604 276.39000519 196.95753082 276.34742737 196.10456848 C275.90609962 186.7812014 275.68619634 177.45321308 275.49731445 168.12182617 C275.43776005 165.20025708 275.37253023 162.27885421 275.30664062 159.35742188 C275.20139862 154.55227639 275.1178198 149.74711614 275.04705811 144.94134521 C275.0147054 142.91915446 274.97649726 140.89705157 274.93341064 138.87506104 C274.8694992 135.80867666 274.82521511 132.74255865 274.78515625 129.67578125 C274.76166611 128.73284714 274.73817596 127.78991302 274.713974 126.81840515 C274.70292381 125.51864494 274.70292381 125.51864494 274.69165039 124.19262695 C274.67226158 123.0471917 274.67226158 123.0471917 274.65248108 121.87861633 C274.76716232 121.25867294 274.88184357 120.63872955 275 120 C278 118 278 118 281 118 C281 113.05 281 108.1 281 103 C282.65 102.67 284.3 102.34 286 102 C286 99.36 286 96.72 286 94 C288.99706695 93.13036913 291.64956526 92.88236901 294.765625 92.90234375 C295.65507812 92.90556641 296.54453125 92.90878906 297.4609375 92.91210938 C298.84152344 92.92467773 298.84152344 92.92467773 300.25 92.9375 C301.65378906 92.94426758 301.65378906 92.94426758 303.0859375 92.95117188 C305.39069041 92.96293082 307.69531227 92.97936574 310 93 C309.67 91.35 309.34 89.7 309 88 C310.485 87.505 310.485 87.505 312 87 C312.33 81.72 312.66 76.44 313 71 C313.99 71 314.98 71 316 71 C316.33 76.28 316.66 81.56 317 87 C317.66 87 318.32 87 319 87 C319.12375 88.134375 319.2475 89.26875 319.375 90.4375 C319.58125 91.613125 319.7875 92.78875 320 94 C320.66 94.33 321.32 94.66 322 95 C322 97.97 322 100.94 322 104 C322.66 104 323.32 104 324 104 C324.06058594 105.21558594 324.12117188 106.43117188 324.18359375 107.68359375 C324.26798332 109.26824228 324.3526321 110.85287702 324.4375 112.4375 C324.47681641 113.23994141 324.51613281 114.04238281 324.55664062 114.86914062 C324.4054296 118.75239561 324.4054296 118.75239561 326 122 C326.12290718 123.65644366 326.17783908 125.31798993 326.20532227 126.97875977 C326.22526749 128.03978409 326.24521271 129.10080841 326.26576233 130.19398499 C326.29083107 131.92520851 326.29083107 131.92520851 326.31640625 133.69140625 C326.33718735 134.86638168 326.35796844 136.04135712 326.37937927 137.25193787 C326.44500124 141.02206324 326.5038183 144.79226082 326.5625 148.5625 C326.6056732 151.11133573 326.64928708 153.66016403 326.69335938 156.20898438 C326.80069545 162.47257892 326.9024379 168.73624601 327 175 C329.93868421 172.06131579 329.46711736 168.82779226 329.625 164.875 C329.66512207 164.07835937 329.70524414 163.28171875 329.74658203 162.4609375 C329.93170493 158.40907011 330.01862338 154.3760414 329.953125 150.3203125 C329.93644775 149.22807373 329.93644775 149.22807373 329.91943359 148.11376953 C329.87702349 146.0962603 329.81021475 144.07930798 329.7421875 142.0625 C329.82726562 141.051875 329.91234375 140.04125 330 139 C333 137 333 137 336 137 C335.91685547 138.75763672 335.91685547 138.75763672 335.83203125 140.55078125 C335.61286603 151.30109015 335.61286603 151.30109015 341.00463867 160.19995117 C343.25920788 162.26231138 345.55208857 164.16910743 348 166 C348.02187378 164.9330188 348.02187378 164.9330188 348.04418945 163.84448242 C348.11861006 160.62493668 348.21529 157.40643482 348.3125 154.1875 C348.33505859 153.06794922 348.35761719 151.94839844 348.38085938 150.79492188 C348.41630859 149.72177734 348.45175781 148.64863281 348.48828125 147.54296875 C348.51446533 146.55321045 348.54064941 145.56345215 348.56762695 144.54370117 C349.06712686 141.60508484 349.61286008 140.73107962 352 139 C357.26217233 137.21621277 360.28897382 137.01342149 365.79296875 137.96875 C369.63207527 138.02310903 372.91830393 136.41003736 376.43359375 134.9921875 C379.26608416 133.89713032 381.98288228 133.32617489 385 133 C386.57578241 138.29012667 387.84941444 143.60204011 389 149 C389.66 149 390.32 149 391 149 C391 139.76 391 130.52 391 121 C392.32 121 393.64 121 395 121 C395 130.24 395 139.48 395 149 C396.65 148.67 398.3 148.34 400 148 C400 139.09 400 130.18 400 121 C401.32 121 402.64 121 404 121 C404 130.57 404 140.14 404 150 C404.99 150 405.98 150 407 150 C407.01417969 148.73542969 407.02835937 147.47085938 407.04296875 146.16796875 C407.08986685 144.50777588 407.13811426 142.84762073 407.1875 141.1875 C407.19620117 139.93743164 407.19620117 139.93743164 407.20507812 138.66210938 C407.24858398 137.45844727 407.24858398 137.45844727 407.29296875 136.23046875 C407.3086792 135.49207764 407.32438965 134.75368652 407.34057617 133.99291992 C408 132 408 132 410.18725586 130.32226562 C413.0633176 128.97023452 415.59796366 128.23089403 418.7109375 127.61328125 C419.79117187 127.39736328 420.87140625 127.18144531 421.984375 126.95898438 C423.10328125 126.74564453 424.2221875 126.53230469 425.375 126.3125 C426.48617188 126.08755859 427.59734375 125.86261719 428.7421875 125.63085938 C434.24611401 124.5530071 439.39006323 123.70091115 445 124 C445.33 125.32 445.66 126.64 446 128 C444.35 128.66 442.7 129.32 441 130 C441.16076523 130.58247498 441.32153046 131.16494995 441.48716736 131.76507568 C442.28188377 135.22844927 442.23930078 138.72783374 442.31640625 142.265625 C442.33718735 143.05902283 442.35796844 143.85242065 442.37937927 144.66986084 C442.44459973 147.19648844 442.50363144 149.72321721 442.5625 152.25 C442.6057114 153.96615616 442.64932653 155.68230222 442.69335938 157.3984375 C442.80025283 161.59885546 442.90159729 165.79937489 443 170 C443.76296387 169.51249268 444.52592773 169.02498535 445.31201172 168.52270508 C448.5017748 166.7157521 450.48675736 166.62823038 454.125 166.6875 C455.67574219 166.69330078 455.67574219 166.69330078 457.2578125 166.69921875 C460 167 460 167 463 169 C463.00546844 167.90458893 463.00546844 167.90458893 463.01104736 166.78704834 C463.04893267 159.90089183 463.10579136 153.01512443 463.18390274 146.12931442 C463.22339255 142.58928335 463.25557317 139.04950156 463.27099609 135.50927734 C463.28905371 131.43807057 463.33899725 127.36779546 463.390625 123.296875 C463.39185364 122.02696716 463.39308228 120.75705933 463.39434814 119.44866943 C463.42392609 117.67728607 463.42392609 117.67728607 463.45410156 115.87011719 C463.46298401 114.83087097 463.47186646 113.79162476 463.48101807 112.72088623 C464.13222573 109.30677515 465.30637958 108.13065229 468 106 C468.87011719 105.72414063 469.74023438 105.44828125 470.63671875 105.1640625 C473.33078932 104.17173946 473.33078932 104.17173946 474.14453125 100.9609375 C474.47517578 99.18589844 474.47517578 99.18589844 474.8125 97.375 C475.04582031 96.18648438 475.27914062 94.99796875 475.51953125 93.7734375 C475.67808594 92.85820313 475.83664062 91.94296875 476 91 C479.02907865 90.34264786 481.8986152 89.84376396 485 89.8125 C485.639375 89.79832031 486.27875 89.78414063 486.9375 89.76953125 C489 90 489 90 494 92 C494 95.96 494 99.92 494 104 C494.66 104 495.32 104 496 104 C495.82605713 105.0619458 495.65211426 106.1238916 495.47290039 107.21801758 C494.75653692 112.99986289 495.15534323 118.70806778 495.43359375 124.51171875 C495.92537448 136.49696026 496.1028362 148.4619639 496.09765625 160.45703125 C496.09736797 161.28705532 496.0970797 162.11707939 496.09678268 162.97225571 C496.09331384 168.05551756 496.08209852 173.13874088 496.06866455 178.22198486 C496.05821118 182.61478167 496.05382112 187.00758482 496.04882812 191.40039062 C496.03828187 199.93361034 496.02134522 208.46680048 496 217 C496.66 217 497.32 217 498 217 C497.98120789 215.35772934 497.98120789 215.35772934 497.96203613 213.68228149 C497.84276477 203.24193309 497.72507794 192.8015678 497.60884857 182.36118507 C497.54908027 176.99680317 497.48879959 171.63242815 497.42724609 166.26806641 C496.89760093 120.04812803 496.89760093 120.04812803 497 99 C497.99 99 498.98 99 500 99 C500.33 103.29 500.66 107.58 501 112 C501.928125 111.835 502.85625 111.67 503.8125 111.5 C513.39225231 110.17534487 522.53386475 111.31445605 532 113 C531.98839844 111.75347656 531.97679687 110.50695312 531.96484375 109.22265625 C531.90791167 100.36928031 531.95954888 91.57384976 532.57836914 82.73876953 C532.87355482 78.45433171 533.06651932 74.18010939 533.18359375 69.88671875 C533.23205444 68.28715332 533.23205444 68.28715332 533.28149414 66.65527344 C533.34234735 64.56116041 533.39286013 62.46671286 533.43139648 60.37207031 C533.62275461 54.26282248 534.51172543 49.59529121 537 44 C537.66 44 538.32 44 539 44 C539 43.01 539 42.02 539 41 C539.66 40.67 540.32 40.34 541 40 C541 39.34 541 38.68 541 38 C541.99 38 542.98 38 544 38 C544 33.71 544 29.42 544 25 C544.66 24.67 545.32 24.34 546 24 C546 21.69 546 19.38 546 17 C547.32 16.67 548.64 16.34 550 16 C550 18.97 550 21.94 550 25 C550.99 25 551.98 25 553 25 C552.91298828 26.14275391 552.91298828 26.14275391 552.82421875 27.30859375 C552.52539276 34.14744003 553.11380438 38.50593664 556.90625 44.2578125 C558 46 558 46 558 48 C558.66 48 559.32 48 560 48 C560.33 50.31 560.66 52.62 561 55 C561.66 55 562.32 55 563 55 C563.03758423 56.11689209 563.03758423 56.11689209 563.07592773 57.25634766 C563.27946776 63.22593195 563.49077846 69.19521203 563.71484375 75.1640625 C563.75730225 76.30311035 563.79976074 77.4421582 563.84350586 78.61572266 C564.00385714 82.08341284 564.24022427 85.5384102 564.5 89 C564.84611321 93.61206273 565.11287495 98.21409115 565.28515625 102.8359375 C565.3315625 104.07214844 565.37796875 105.30835937 565.42578125 106.58203125 C565.62303821 112.0545028 565.81441169 117.52711912 566 123 C569.96 123.66 573.92 124.32 578 125 C577.99777939 123.48632339 577.99555878 121.97264679 577.99327087 120.4131012 C577.9730431 106.18289906 577.95796966 91.95270198 577.94818783 77.72248936 C577.94302494 70.40572598 577.93598238 63.0889733 577.92456055 55.7722168 C577.91461349 49.39716982 577.90814652 43.02213059 577.90591151 36.64707607 C577.90460443 33.26951986 577.90151881 29.89198584 577.89426994 26.51443672 C577.88706387 22.74992657 577.88600887 18.98546315 577.88647461 15.22094727 C577.88287933 14.09310318 577.87928406 12.96525909 577.87557983 11.80323792 C577.8769545 10.78375061 577.87832916 9.76426331 577.87974548 8.71388245 C577.87882369 7.82250863 577.8779019 6.93113482 577.87695217 6.01274967 C578 4 578 4 579 3 C581.73894085 2.91141354 584.4525327 2.88476521 587.19140625 2.90234375 C588.01124496 2.9037587 588.83108368 2.90517365 589.67576599 2.90663147 C592.30471382 2.91224711 594.93357773 2.92480221 597.5625 2.9375 C599.34049357 2.94251299 601.11848846 2.94707624 602.89648438 2.95117188 C607.26435545 2.96222161 611.63216348 2.97949669 616 3 C616.98518324 5.95554971 617.11146664 7.80201784 617.08229065 10.87846375 C617.07525116 11.88387207 617.06821167 12.8892804 617.06095886 13.92515564 C617.04801285 15.0271077 617.03506683 16.12905975 617.02172852 17.2644043 C617.0073172 19.00607376 617.0073172 19.00607376 616.99261475 20.78292847 C616.95957008 24.63008586 616.91925839 28.47713163 616.87890625 32.32421875 C616.85461048 34.9879376 616.83071625 37.651657 616.80735779 40.31538391 C616.75122538 46.61582785 616.68986632 52.91620966 616.62663645 59.21658593 C616.55490489 66.38939669 616.48898934 73.56225718 616.42356598 80.73512781 C616.28885574 95.49014918 616.14662348 110.24509212 616 125 C620.62 125 625.24 125 630 125 C630 112.79 630 100.58 630 88 C631.32 88 632.64 88 634 88 C634 81.4 634 74.8 634 68 C645.6317641 63.89467149 654.78699804 63.65012475 666 69 C666.03758423 69.85549438 666.03758423 69.85549438 666.07592773 70.72827148 C666.19156549 73.29826157 666.31443624 75.86785527 666.4375 78.4375 C666.49647461 79.78424805 666.49647461 79.78424805 666.55664062 81.15820312 C666.59853516 82.01220703 666.64042969 82.86621094 666.68359375 83.74609375 C666.73858032 84.93223267 666.73858032 84.93223267 666.79467773 86.14233398 C666.80563257 88.01401441 666.80563257 88.01401441 668 89 C668.12525151 91.86012897 668.18609721 94.69728154 668.20532227 97.55883789 C668.21522186 98.45631241 668.22512146 99.35378693 668.23532104 100.27845764 C668.2670354 103.25982988 668.29173256 106.24121809 668.31640625 109.22265625 C668.33696721 111.28389411 668.35796344 113.34512766 668.37937927 115.40635681 C668.4346886 120.84299244 668.48405866 126.27966667 668.53222656 131.71636963 C668.58237706 137.25951592 668.63809672 142.80260586 668.69335938 148.34570312 C668.80104926 159.23042066 668.90247002 170.11518703 669 181 C669.66 179.68 670.32 178.36 671 177 C671.66 177 672.32 177 673 177 C673 174.36 673 171.72 673 169 C677.28911417 167.83024159 680.64365597 168.31215621 685 169 C686.9996695 169.03635763 689.00059462 169.04876598 691 169 C690.9690625 167.2984375 690.9690625 167.2984375 690.9375 165.5625 C691 162 691 162 692 161 C694.53049402 160.92686433 697.03304837 160.90752473 699.5625 160.9375 C700.62887695 160.94426758 700.62887695 160.94426758 701.71679688 160.95117188 C703.47790013 160.96299136 705.23896036 160.98092737 707 161 C708.79682816 164.80504787 709.07349791 165.70600835 708 170 C713.94 169.67 719.88 169.34 726 169 C726 171.97 726 174.94 726 178 C726.66 178 727.32 178 728 178 C728.01030746 177.23088287 728.02061493 176.46176575 728.03123474 175.66934204 C728.13071476 168.28988745 728.23339057 160.91048653 728.33933926 153.53112221 C728.39365634 149.74065799 728.44689089 145.95018614 728.49731445 142.15966797 C728.69860784 127.08943292 728.92934302 112.0234312 729.47265625 96.9609375 C729.50975204 95.87108551 729.54684784 94.78123352 729.58506775 93.65835571 C729.62410721 92.67072235 729.66314667 91.68308899 729.70336914 90.66552734 C729.73644669 89.8071225 729.76952423 88.94871765 729.80360413 88.06430054 C730 86 730 86 731 84 C738.6667773 84.89445735 738.6667773 84.89445735 740.9609375 85.62109375 C743.64146515 86.11919946 745.30649601 85.49717114 747.875 84.625 C751.57862658 83.42515648 755.12715426 82.50958497 759 82 C761.13615339 85.51763733 761.36630775 88.56403857 761.59765625 92.63671875 C761.67693359 93.93673828 761.75621094 95.23675781 761.83789062 96.57617188 C761.91318123 97.94659153 761.98804815 99.31703452 762.0625 100.6875 C762.21655346 103.35829374 762.37574401 106.02873433 762.53515625 108.69921875 C762.600979 109.88346436 762.66680176 111.06770996 762.73461914 112.2878418 C762.92457998 114.94502177 763.18532799 117.52649389 763.52075195 120.16333008 C764.1888333 125.99887994 764.14319595 131.82028314 764.1328125 137.6875 C764.13376923 138.90284424 764.13472595 140.11818848 764.13571167 141.37036133 C764.13639021 143.94222058 764.13455873 146.51408157 764.13037109 149.0859375 C764.12509286 152.93233326 764.13028831 156.77860821 764.13671875 160.625 C764.14043103 172.75828154 764.02233939 184.87487874 763.5546875 197 C763.51594513 198.02633545 763.47720276 199.0526709 763.43728638 200.11010742 C763.23329506 204.81587148 762.93184298 209.36914127 762 214 C765.3 214 768.6 214 772 214 C771.9071875 211.586875 771.9071875 211.586875 771.8125 209.125 C771.70703125 206.3828125 771.70703125 206.3828125 772 204 C773.485 203.01 773.485 203.01 775 202 C775.680625 201.13375 776.36125 200.2675 777.0625 199.375 C777.701875 198.59125 778.34125 197.8075 779 197 C779.66 197 780.32 197 781 197 C781 195.02 781 193.04 781 191 C781.99 191 782.98 191 784 191 C784.0928125 192.11375 784.0928125 192.11375 784.1875 193.25 C785.24490715 196.82891652 787.10356936 197.75526625 790 200 C790.8125 202.25 790.8125 202.25 791 204 C791.66 204 792.32 204 793 204 C793.54372951 207.05847848 794 209.88772805 794 213 C802.58 213.33 811.16 213.66 820 214 C820.33 216.97 820.66 219.94 821 223 C822.65 222.34 824.3 221.68 826 221 C825.67 214.4 825.34 207.8 825 201 C818.53224915 198.12544406 812.28368022 195.62496452 805.625 193.34375 C803 192 803 192 802.125 189.84375 C802.08375 189.2353125 802.0425 188.626875 802 188 C803.39664108 188.11562606 804.79231199 188.242992 806.1875 188.375 C806.96480469 188.44460937 807.74210938 188.51421875 808.54296875 188.5859375 C811 189 811 189 813.11936951 190.00772095 C816.93334643 191.32150604 820.56144143 191.29506917 824.54711914 191.29052734 C825.39664154 191.29724457 826.24616394 191.30396179 827.12142944 191.31088257 C829.92606488 191.32985556 832.73046065 191.33378721 835.53515625 191.3359375 C837.49466549 191.34236876 839.45417378 191.34909736 841.41368103 191.35610962 C845.52344993 191.36808269 849.63313481 191.3717907 853.74291992 191.37060547 C858.98250747 191.37040293 864.22154863 191.39763716 869.46100712 191.43214989 C873.51135172 191.4545111 877.56156711 191.4584401 881.61196709 191.45738602 C883.54187327 191.45973073 885.47178363 191.46848982 887.40162849 191.48405075 C898.10500982 191.56223446 906.94966957 191.10842961 917 187 C917.66 187 918.32 187 919 187 C919 188.32 919 189.64 919 191 C916.27655418 192.48988243 913.54534386 193.96493737 910.8125 195.4375 C910.04357422 195.85837891 909.27464844 196.27925781 908.48242188 196.71289062 C907.35610352 197.31713867 907.35610352 197.31713867 906.20703125 197.93359375 C905.5210083 198.30540771 904.83498535 198.67722168 904.12817383 199.06030273 C902 200 902 200 897 201 C897.33 207.6 897.66 214.2 898 221 C905.50439464 225.30399104 911.36539681 226.83680303 920 227 C920 224.36 920 221.72 920 219 C919.21625 218.71125 918.4325 218.4225 917.625 218.125 C915 217 915 217 913 215 C913 214.01 913 213.02 913 212 C921.261959 207.59225513 921.261959 207.59225513 926 207 C926.33 205.68 926.66 204.36 927 203 C926.236875 202.71125 925.47375 202.4225 924.6875 202.125 C922 201 922 201 919 199 C919.125 196.6875 919.125 196.6875 920 194 C925.00226012 190.44576254 931.06063674 189.89830227 937 189 C935.8137885 185.54501506 934.91364271 183.55512067 931.875 181.5 C929 179 929 179 928.625 176.1875 C928.74875 175.465625 928.8725 174.74375 929 174 C929.54527344 173.76925781 930.09054687 173.53851563 930.65234375 173.30078125 C944.00820991 167.92296214 944.00820991 167.92296214 952.4453125 156.9765625 C953.06010089 154.78583769 953.12027432 152.95720556 953.0625 150.6875 C953.0315625 148.8621875 953.0315625 148.8621875 953 147 C953.66 146.34 954.32 145.68 955 145 C958.125 145.375 958.125 145.375 961 146 C962.12676056 150.50704225 962.12676056 150.50704225 961.4375 153.1875 C961.293125 153.785625 961.14875 154.38375 961 155 C961.66 155.66 962.32 156.32 963 157 C963.41765625 158.18916016 963.41765625 158.18916016 963.84375 159.40234375 C966.63757398 165.6790091 974.45975685 168.96024552 980.5625 171.375 C981.38878906 171.67148438 982.21507812 171.96796875 983.06640625 172.2734375 C985 173 985 173 986 174 C986.4375 176.25 986.4375 176.25 986 179 C984.02043058 180.69088222 982.02054804 182.35830472 980 184 C980 185.32 980 186.64 980 188 C984.95 189.65 989.9 191.3 995 193 C995.33 194.65 995.66 196.3 996 198 C992.535 200.97 992.535 200.97 989 204 C989.33 204.99 989.66 205.98 990 207 C992.29671092 207.99093017 992.29671092 207.99093017 995 208.625 C999.92664093 209.92664093 999.92664093 209.92664093 1001 211 C1001.3125 213.375 1001.3125 213.375 1001 216 C1000.0409375 216.6496875 1000.0409375 216.6496875 999.0625 217.3125 C996.01511565 219.41017151 996.01511565 219.41017151 996 227 C1004.91 227 1013.82 227 1023 227 C1023 193.01 1023 159.02 1023 124 C1058.26768642 124 1058.26768642 124 1070 132 C1072.97 133.485 1072.97 133.485 1076 135 C1076 140.28 1076 145.56 1076 151 C1077.98 151.33 1079.96 151.66 1082 152 C1082 153.98 1082 155.96 1082 158 C1079.69 158.33 1077.38 158.66 1075 159 C1075 165.6 1075 172.2 1075 179 C1083.25 179.33 1091.5 179.66 1100 180 C1100 176.37 1100 172.74 1100 169 C1107.24487049 168.97535887 1114.48971682 168.9571682 1121.73461914 168.94506836 C1124.20142033 168.94002644 1126.66821852 168.93319309 1129.13500977 168.92456055 C1132.67204529 168.91248875 1136.20904145 168.90677044 1139.74609375 168.90234375 C1140.85649521 168.89718246 1141.96689667 168.89202118 1143.11094666 168.88670349 C1144.64242088 168.88659019 1144.64242088 168.88659019 1146.20483398 168.88647461 C1147.10862289 168.884254 1148.0124118 168.88203339 1148.94358826 168.87974548 C1151 169 1151 169 1152 170 C1152 172.97 1152 175.94 1152 179 C1157.94 179 1163.88 179 1170 179 C1170 192.2 1170 205.4 1170 219 C1172.64 218.67 1175.28 218.34 1178 218 C1177.99777939 217.43845718 1177.99555878 216.87691437 1177.99327087 216.2983551 C1177.97121694 210.47519565 1177.95609295 204.65204799 1177.94506836 198.82885742 C1177.94002692 196.65307127 1177.93319393 194.47728853 1177.92456055 192.30151367 C1177.91248662 189.18146933 1177.90676995 186.06146962 1177.90234375 182.94140625 C1177.89718246 181.96224747 1177.89202118 180.98308868 1177.88670349 179.97425842 C1177.88662796 179.07340012 1177.88655243 178.17254181 1177.88647461 177.24438477 C1177.884254 176.44718521 1177.88203339 175.64998566 1177.87974548 174.82862854 C1178 173 1178 173 1179 172 C1181.21855264 171.91216458 1183.43988496 171.89305391 1185.66015625 171.90234375 C1186.65685585 171.90446617 1186.65685585 171.90446617 1187.6736908 171.90663147 C1189.80333899 171.91224482 1191.93288339 171.92479946 1194.0625 171.9375 C1195.50325369 171.94251329 1196.94400903 171.94707649 1198.38476562 171.95117188 C1201.92321102 171.96221855 1205.46159539 171.97949208 1209 172 C1209.33 173.98 1209.66 175.96 1210 178 C1211.670625 177.9690625 1211.670625 177.9690625 1213.375 177.9375 C1217 178 1217 178 1219 179 C1219 179.66 1219 180.32 1219 181 C1223.62 181.33 1228.24 181.66 1233 182 C1233 189.26 1233 196.52 1233 204 C1238.61 204.33 1244.22 204.66 1250 205 C1250 207.64 1250 210.28 1250 213 C1254.62 213 1259.24 213 1264 213 C1264 222.24 1264 231.48 1264 241 C1273.9 241 1283.8 241 1294 241 C1294 238.36 1294 235.72 1294 233 C1296.29629994 231.85185003 1298.07698086 231.69230191 1300.625 231.4375 C1301.85089844 231.31181641 1301.85089844 231.31181641 1303.1015625 231.18359375 C1303.72804688 231.12300781 1304.35453125 231.06242188 1305 231 C1304.98952637 230.43490723 1304.97905273 229.86981445 1304.96826172 229.28759766 C1304.92675212 226.73344347 1304.9006904 224.17936018 1304.875 221.625 C1304.85824219 220.73554688 1304.84148437 219.84609375 1304.82421875 218.9296875 C1304.81777344 218.07890625 1304.81132813 217.228125 1304.8046875 216.3515625 C1304.79421387 215.56604004 1304.78374023 214.78051758 1304.77294922 213.97119141 C1305 212 1305 212 1307 210 C1309.3828125 209.8046875 1309.3828125 209.8046875 1312.125 209.875 C1313.03507812 209.89304688 1313.94515625 209.91109375 1314.8828125 209.9296875 C1315.58148437 209.95289063 1316.28015625 209.97609375 1317 210 C1317 208.35 1317 206.7 1317 205 C1321.29 205 1325.58 205 1330 205 C1330 206.65 1330 208.3 1330 210 C1331.7015625 209.9690625 1331.7015625 209.9690625 1333.4375 209.9375 C1337 210 1337 210 1338 211 C1338.08651611 212.41570123 1338.10704904 213.835595 1338.09765625 215.25390625 C1338.09282227 216.53491211 1338.09282227 216.53491211 1338.08789062 217.84179688 C1338.07951172 218.73962891 1338.07113281 219.63746094 1338.0625 220.5625 C1338.05798828 221.46419922 1338.05347656 222.36589844 1338.04882812 223.29492188 C1338.03700244 225.52997589 1338.01906638 227.76499602 1338 230 C1341.96 230 1345.92 230 1350 230 C1349.99777939 228.78732956 1349.99555878 227.57465912 1349.99327087 226.32524109 C1349.97272864 214.72510717 1349.95788164 203.12497709 1349.94818783 191.52482891 C1349.94303618 185.56545422 1349.93608476 179.60609456 1349.92456055 173.64672852 C1349.89553777 158.09750813 1349.90269856 142.54899171 1350 127 C1350.00852934 125.59290457 1350.00852934 125.59290457 1350.01723099 124.15738297 C1350.05162545 119.13256889 1350.10993283 114.10916395 1350.20936775 109.08519936 C1350.23584445 107.64499408 1350.25621197 106.20465948 1350.26955986 104.76427269 C1350.39198758 92.85979377 1352.99043169 83.25322703 1359 73 C1360.97909398 72.97313447 1362.95828971 72.95366625 1364.9375 72.9375 C1366.03964844 72.92589844 1367.14179687 72.91429688 1368.27734375 72.90234375 C1371 73 1371 73 1372 74 C1372.07205511 75.68608966 1372.08386068 77.37500659 1372.0625 79.0625 C1372.05347656 79.98160156 1372.04445313 80.90070313 1372.03515625 81.84765625 C1372.02355469 82.55792969 1372.01195312 83.26820312 1372 84 C1372.99 84 1373.98 84 1375 84 C1375 85.32 1375 86.64 1375 88 C1377.64 88 1380.28 88 1383 88 C1383 89.32 1383 90.64 1383 92 C1384.134375 91.979375 1385.26875 91.95875 1386.4375 91.9375 C1390 92 1390 92 1391 93 C1391.14115161 95.67058851 1391.04247107 98.32432238 1391 101 C1394.465 101.495 1394.465 101.495 1398 102 C1398 104.64 1398 107.28 1398 110 C1400.31 110 1402.62 110 1405 110 C1405 112.64 1405 115.28 1405 118 C1407.64 118 1410.28 118 1413 118 C1413 120.64 1413 123.28 1413 126 C1415.64 126 1418.28 126 1421 126 C1421.33 150.09 1421.66 174.18 1422 199 C1423.32 199.33 1424.64 199.66 1426 200 C1426 204.95 1426 209.9 1426 215 C1430.29 215 1434.58 215 1439 215 C1439 216.65 1439 218.3 1439 220 C1440.65 220 1442.3 220 1444 220 C1444 211.75 1444 203.5 1444 195 C1448.62 195 1453.24 195 1458 195 C1458 189.72 1458 184.44 1458 179 C1466.91 178.67 1475.82 178.34 1485 178 C1485.04518168 168.68145262 1485.0818763 159.36297798 1485.10362434 150.04434586 C1485.11406222 145.71734803 1485.1282215 141.39042903 1485.15087891 137.06347656 C1485.17260714 132.88784765 1485.1845686 128.71229455 1485.18975449 124.53661346 C1485.19345028 122.94340573 1485.2006672 121.35020214 1485.21146011 119.75702667 C1485.22597485 117.52575202 1485.22797796 115.29479082 1485.22705078 113.06347656 C1485.23371262 111.15819183 1485.23371262 111.15819183 1485.24050903 109.2144165 C1485.00997946 106.13337599 1484.50869717 104.61608148 1483 102 C1482.51793226 97.36638791 1482.58361074 92.71859034 1482.5625 88.0625 C1482.52962891 86.78697266 1482.49675781 85.51144531 1482.46289062 84.19726562 C1482.40888279 74.8342718 1482.40888279 74.8342718 1485.203125 70.890625 C1486.12609375 70.26671875 1487.0490625 69.6428125 1488 69 C1488.83917969 68.28199219 1489.67835937 67.56398438 1490.54296875 66.82421875 C1491.41566406 66.11910156 1492.28835938 65.41398437 1493.1875 64.6875 C1494.61835938 63.52927734 1494.61835938 63.52927734 1496.078125 62.34765625 C1497.04234375 61.57292969 1498.0065625 60.79820313 1499 60 C1499.92296875 59.25621094 1500.8459375 58.51242188 1501.796875 57.74609375 C1504.1916642 55.82246869 1506.58720439 53.90099048 1509 52 C1510.00160156 51.15308594 1510.00160156 51.15308594 1511.0234375 50.2890625 C1514.34378871 48.12361606 1517.11628306 48.74533004 1521 49 C1522 50 1522 50 1522.0625 52.5625 C1522.041875 53.366875 1522.02125 54.17125 1522 55 C1522.66 55 1523.32 55 1524 55 C1524 56.32 1524 57.64 1524 59 C1525.32 59.33 1526.64 59.66 1528 60 C1528 60.99 1528 61.98 1528 63 C1529.32 63.33 1530.64 63.66 1532 64 C1532 64.33 1532 64.66 1532 65 C1535.465 65.495 1535.465 65.495 1539 66 C1539 67.65 1539 69.3 1539 71 C1539.66 71.33 1540.32 71.66 1541 72 C1540.99476318 71.39937744 1540.98952637 70.79875488 1540.98413086 70.17993164 C1540.96341986 67.47413162 1540.95035875 64.76834823 1540.9375 62.0625 C1540.92912109 61.11697266 1540.92074219 60.17144531 1540.91210938 59.19726562 C1540.90888672 58.29814453 1540.90566406 57.39902344 1540.90234375 56.47265625 C1540.89710693 55.64000244 1540.89187012 54.80734863 1540.88647461 53.94946289 C1541 52 1541 52 1542 51 C1556.55713198 49.44068485 1572.49318771 48.07944707 1584.56054688 57.47167969 C1585.69536152 58.41182703 1586.81109136 59.37563057 1587.90362072 60.36460018 C1590.0058605 62.11283685 1590.0058605 62.11283685 1592.7239809 63.37905979 C1600.38797387 67.32186888 1600.38797387 67.32186888 1602.00018883 71.74244499 C1602.35639039 75.1768888 1602.36166546 78.46051534 1602.2487793 81.91186523 C1602.25038559 83.20035873 1602.25199188 84.48885223 1602.25364685 85.81639099 C1602.25679192 89.33410165 1602.19233358 92.84765129 1602.11533332 96.36439776 C1602.04636577 100.04504711 1602.04009197 103.72580189 1602.02705383 107.40699768 C1601.99292139 114.37045995 1601.90273989 121.33201284 1601.79220945 128.29463583 C1601.66907272 136.22424365 1601.60873233 144.15394478 1601.55355966 152.08427131 C1601.43871189 168.39063036 1601.24535117 184.6950712 1601 201 C1603.63855103 199.81595774 1606.25805971 198.60518561 1608.875 197.375 C1609.62136719 197.04371094 1610.36773438 196.71242187 1611.13671875 196.37109375 C1615.80133408 194.18637351 1615.80133408 194.18637351 1618.37109375 189.8125 C1618.68240234 188.4203125 1618.68240234 188.4203125 1619 187 C1622.83866105 184.58712734 1626.56371204 184.82602792 1631 185 C1631 181.37 1631 177.74 1631 174 C1627.37 173.01 1623.74 172.02 1620 171 C1620 169.35 1620 167.7 1620 166 C1624 164.66666667 1628 163.33333333 1632 162 C1631.67 161.67 1631.34 161.34 1631 161 C1630.91348389 159.58429877 1630.89295096 158.164405 1630.90234375 156.74609375 C1630.90717773 155.46508789 1630.90717773 155.46508789 1630.91210938 154.15820312 C1630.92048828 153.26037109 1630.92886719 152.36253906 1630.9375 151.4375 C1630.94201172 150.53580078 1630.94652344 149.63410156 1630.95117188 148.70507812 C1630.96299775 146.46998686 1630.9794778 144.23502563 1631 142 C1627.535 141.01 1627.535 141.01 1624 140 C1624.33 138.35 1624.66 136.7 1625 135 C1627.22844214 134.3516711 1629.4577846 133.70643631 1631.6875 133.0625 C1632.92886719 132.70285156 1634.17023438 132.34320313 1635.44921875 131.97265625 C1638.29639862 131.19273569 1641.09802254 130.52712784 1644 130 C1644 129.01 1644 128.02 1644 127 C1642.989375 126.87625 1641.97875 126.7525 1640.9375 126.625 C1637.12062388 126.01914665 1633.68499888 125.12806088 1630 124 C1630.33 122.02 1630.66 120.04 1631 118 C1631.76441406 117.87625 1632.52882813 117.7525 1633.31640625 117.625 C1642.9999071 115.76054737 1650.57849639 111.99197647 1659 107 C1659.82628906 106.53078125 1660.65257812 106.0615625 1661.50390625 105.578125 C1663.6535348 104.3253745 1663.6535348 104.3253745 1666 102 C1666.50095023 98.87306228 1666.50095023 98.87306228 1666 96 C1666.33 95.34 1666.66 94.68 1667 94 C1669.31 94 1671.62 94 1674 94 C1674.33 94.99 1674.66 95.98 1675 97 C1675.53625 96.72027344 1676.0725 96.44054687 1676.625 96.15234375 C1683.17096525 92.8039964 1689.85616977 89.83026208 1696.6015625 86.9140625 C1699.73285621 85.55864132 1702.84992585 84.17478321 1705.9609375 82.7734375 C1706.78013672 82.40516846 1707.59933594 82.03689941 1708.44335938 81.6574707 C1710.04228821 80.93747112 1711.63998542 80.21472902 1713.23632812 79.48901367 C1718.77816179 77 1718.77816179 77 1721 77 C1721 75.02 1721 73.04 1721 71 C1722.98 71 1724.96 71 1727 71 C1727.103125 71.721875 1727.20625 72.44375 1727.3125 73.1875 C1729.63023004 82.66912289 1738.79103639 90.85804228 1746.625 96.0625 C1753.9919888 100.38750185 1760.53000967 101.35291626 1769 101 C1769.33 103.31 1769.66 105.62 1770 108 C1767.2092793 108.83661862 1764.41751988 109.66942737 1761.625 110.5 C1760.8309375 110.73847656 1760.036875 110.97695312 1759.21875 111.22265625 C1758.07792969 111.56103516 1758.07792969 111.56103516 1756.9140625 111.90625 C1756.2123291 112.11572266 1755.5105957 112.32519531 1754.78759766 112.54101562 C1753 113 1753 113 1751 113 C1751 113.66 1751 114.32 1751 115 C1751.96824707 115.11275269 1751.96824707 115.11275269 1752.95605469 115.2277832 C1755.88904871 115.57661016 1758.81937266 115.94433994 1761.75 116.3125 C1762.76578125 116.43044922 1763.7815625 116.54839844 1764.828125 116.66992188 C1766.29765625 116.85844727 1766.29765625 116.85844727 1767.796875 117.05078125 C1768.69760742 117.16075439 1769.59833984 117.27072754 1770.52636719 117.3840332 C1773.37617429 118.0936723 1774.93296229 118.91337666 1777 121 C1777 122.32 1777 123.64 1777 125 C1774.03 125.99 1771.06 126.98 1768 128 C1768 135.59 1768 143.18 1768 151 C1767.34 151.33 1766.68 151.66 1766 152 C1769.81303892 153.19157466 1773.40099459 154.11775571 1777.375 154.5625 C1781 155 1781 155 1782 156 C1782 157.98 1782 159.96 1782 162 C1774.575 163.98 1774.575 163.98 1767 166 C1767 170.62 1767 175.24 1767 180 C1770.96 179.67 1774.92 179.34 1779 179 C1779 175.04 1779 171.08 1779 167 C1780.32 167 1781.64 167 1783 167 C1783 170.96 1783 174.92 1783 179 C1783.66 178.67 1784.32 178.34 1785 178 C1787.04055005 177.92934383 1789.08334257 177.91578024 1791.125 177.9375 C1794.033125 177.9684375 1794.033125 177.9684375 1797 178 C1797 173.38 1797 168.76 1797 164 C1798.32 164 1799.64 164 1801 164 C1800.99097656 164.94101563 1800.98195313 165.88203125 1800.97265625 166.8515625 C1800.91774175 173.91346083 1800.91774175 173.91346083 1803.5546875 180.23046875 C1805.91014821 182.20964217 1808.25767472 183.62883736 1811 185 C1811 213.38 1811 241.76 1811 271 C1195.22 271 579.44 271 -55 271 C-55 256.48 -55 241.96 -55 227 C-43.9375 226.5625 -43.9375 226.5625 -40.49194336 226.43188477 C-31.31863563 226.27416667 -31.31863563 226.27416667 -22.5625 223.9375 C-18.94345335 222.61345854 -15.84195003 222.86976441 -12 223 C-11.855625 221.80375 -11.71125 220.6075 -11.5625 219.375 C-11.12960657 215.8994842 -10.60383744 212.45049966 -10 209 C-9.34 209 -8.68 209 -8 209 C-8.2597019 203.03984151 -8.76571871 199.49892387 -13 195 C-13.87486034 192.37541898 -14.24983219 190.53249275 -14.375 187.8125 C-14.42398438 187.09707031 -14.47296875 186.38164062 -14.5234375 185.64453125 C-13.95715775 182.78355072 -13.28783397 182.07249213 -11.52026367 179.85913086 C-7.46578028 173.46638742 -8.1885294 165.91900869 -8.15234375 158.609375 C-8.12903649 157.01611021 -8.10415399 155.42286776 -8.07777405 153.82965088 C-8.02815916 150.50456394 -7.99567224 147.17988656 -7.97583008 143.85449219 C-7.94928929 139.59449081 -7.88260286 135.33624454 -7.80356503 131.076931 C-7.74654046 127.79309962 -7.70920426 124.50927449 -7.67798042 121.22510529 C-7.66095663 119.65416453 -7.63815877 118.08327523 -7.60944939 116.51250458 C-7.5726191 114.32013821 -7.56196593 112.12916294 -7.55834961 109.93652344 C-7.54678329 108.69046326 -7.53521698 107.44440308 -7.52330017 106.1605835 C-8.09163919 102.39241992 -9.17704098 101.43323281 -12 99 C-13.56840852 94.29477445 -13.54895539 90.47351184 -11.8125 85.8125 C-9.47953993 82.19238954 -6.84455245 79.92227622 -3 78 C-2.97293555 75.10410348 -2.95312971 72.20846205 -2.9375 69.3125 C-2.92493164 68.08756836 -2.92493164 68.08756836 -2.91210938 66.83789062 C-2.89546091 62.7257194 -3.0978238 59.02972036 -4 55 C-3.5625 52.1875 -3.5625 52.1875 -3 50 C-2.34 50 -1.68 50 -1 50 C-1.33 45.71 -1.66 41.42 -2 37 C-1.34 37 -0.68 37 0 37 C-0.08378906 36.25621094 -0.16757812 35.51242188 -0.25390625 34.74609375 C-1.33827519 23.12001153 -0.66314862 11.63592749 0 0 Z M587 12 C587.52276811 20.93540579 587.52276811 20.93540579 589 25 C594.61 25 600.22 25 606 25 C606.33 23.5975 606.66 22.195 607 20.75 C607.185625 19.96109375 607.37125 19.1721875 607.5625 18.359375 C608.12154828 15.74443998 608.12154828 15.74443998 608 12 C601.07 12 594.14 12 587 12 Z M529 117 C529.33 117.99 529.66 118.98 530 120 C530.14777936 121.69867188 530.24747066 123.40177489 530.31640625 125.10546875 C530.35830078 126.08837891 530.40019531 127.07128906 530.44335938 128.08398438 C530.48267578 129.10814453 530.52199219 130.13230469 530.5625 131.1875 C530.60568359 132.22326172 530.64886719 133.25902344 530.69335938 134.32617188 C530.79944366 136.8839819 530.90150146 139.44188845 531 142 C531.33 142 531.66 142 532 142 C532 133.42 532 124.84 532 116 C530.7763932 115.9254644 530.7763932 115.9254644 529 117 Z M1759 130 C1759 133.3 1759 136.6 1759 140 C1760.32 140 1761.64 140 1763 140 C1763 136.37 1763 132.74 1763 129 C1761.63106761 128.94729537 1761.63106761 128.94729537 1759 130 Z M1635 143 C1635 145.31 1635 147.62 1635 150 C1635.66 149.67 1636.32 149.34 1637 149 C1637 147.02 1637 145.04 1637 143 C1636.34 143 1635.68 143 1635 143 Z M531 145 C531 152.26 531 159.52 531 167 C531.33 167 531.66 167 532 167 C532 159.74 532 152.48 532 145 C531.67 145 531.34 145 531 145 Z M387 151 C387 158.26 387 165.52 387 173 C387.33 173 387.66 173 388 173 C388 165.74 388 158.48 388 151 C387.67 151 387.34 151 387 151 Z M9 205 C9 208.96 9 212.92 9 217 C10.32 215.68 11.64 214.36 13 213 C11.73025028 208.58477891 11.73025028 208.58477891 9 205 Z M16 217 C14.94100258 218.45208787 13.92739219 219.93745061 12.9375 221.4375 C12.38964844 222.26121094 11.84179688 223.08492187 11.27734375 223.93359375 C9.91236651 225.73687969 9.91236651 225.73687969 10 227 C12.31 227 14.62 227 17 227 C17 226.34 17 225.68 17 225 C18.32 224.67 19.64 224.34 21 224 C19.02 220.535 19.02 220.535 17 217 C16.67 217 16.34 217 16 217 Z " fill="#FEFEFE" transform="translate(58,0)"/>
</svg>
